<?xml version="1.0" standalone="no"?>
<!DOCTYPE svg PUBLIC "-//W3C//DTD SVG 20010904//EN"
 "http://www.w3.org/TR/2001/REC-SVG-20010904/DTD/svg10.dtd">
<svg version="1.0" xmlns="http://www.w3.org/2000/svg"
 width="200.000000pt" height="203.000000pt" viewBox="0 0 200.000000 203.000000"
 preserveAspectRatio="xMidYMid meet">

<g transform="translate(0.000000,203.000000) scale(0.100000,-0.100000)"
fill="#000000" stroke="none">
<path d="M865 1924 c-11 -2 -51 -11 -88 -20 -262 -60 -495 -253 -613 -510
-208 -450 -9 -997 441 -1210 160 -75 331 -104 501 -84 166 19 334 86 452 180
239 189 362 438 362 731 0 250 -83 459 -254 637 -123 128 -237 199 -403 248
-74 22 -111 27 -233 30 -80 1 -154 1 -165 -2z m233 -420 c82 -17 184 -61 190
-82 3 -9 -24 -12 -115 -10 -137 3 -178 -8 -221 -56 -56 -64 -51 -163 15 -347
20 -55 33 -102 30 -106 -4 -3 -85 7 -182 22 l-175 27 -10 37 c-18 61 -24 221
-11 282 16 75 66 157 117 191 84 56 218 72 362 42z m97 -209 c57 -33 105 -104
105 -155 0 -100 -127 -143 -237 -80 -91 52 -130 154 -81 215 47 61 131 69 213
20z m194 -50 c29 -30 64 -81 79 -112 23 -50 27 -71 27 -153 0 -105 -16 -149
-87 -238 -100 -126 -329 -247 -540 -287 l-35 -7 -41 94 c-79 179 -153 370
-147 376 3 3 43 0 88 -7 194 -29 230 -32 301 -21 146 22 254 74 296 142 36 60
36 101 -6 246 -10 36 9 26 65 -33z"/>
</g>
</svg>
